<?xml version="1.0" encoding="utf-8"?>
<!-- Generator: Adobe Illustrator 25.4.0, SVG Export Plug-In . SVG Version: 6.00 Build 0)  -->
<svg version="1.1" id="Layer_1" xmlns="http://www.w3.org/2000/svg" xmlns:xlink="http://www.w3.org/1999/xlink" x="0px" y="0px"
	 viewBox="0 0 510.7 510.71" style="enable-background:new 0 0 510.7 510.71;" xml:space="preserve">
<style type="text/css">
	.st0{fill:#FDFEFE;}
	.st1{fill:#02F5C6;}
</style>
<path class="st0" d="M999.74,434.13c-79.79,0-159.58,0-239.44,0c0-1.14,0-2.27,0-3.41c0-168.05,0.01-336.1-0.1-504.15
	c0-3.6,0.74-4.34,4.33-4.34c167.72,0.11,335.44,0.11,503.16-0.01c3.92,0,4.5,1.08,4.5,4.67c-0.11,77.29-0.09,154.59-0.09,231.88
	c-1.25-0.48-0.92-1.6-1.01-2.53c-3.67-38.97-15.48-75.27-35.57-108.88c-5.97-9.98-12.68-19.43-20.33-29.28
	c5.22,1.02,9.57,1.93,13.94,2.72c8.31,1.51,16.24-3.54,17.91-11.33C1248.88,1,1243.67-7,1234.9-8.73
	c-20.51-4.05-41.04-8.04-61.6-11.86c-10.18-1.9-18.82,6.41-17.76,16.74c0.19,1.81,0.56,3.61,0.81,5.42c2.4,17.1,4.7,34.21,7.22,51.3
	c1.36,9.21,8.74,15.1,16.94,13.94c8.55-1.21,13.47-8.09,12.87-17.71c-0.21-3.43-1.59-6.75-0.9-10.9c1.63,1.99,3.05,3.54,4.27,5.23
	c38.85,53.41,53.26,112.73,41.05,177.68c-19.73,105.01-110.39,180.92-217.27,182.86c-17.01,0.31-33.78-1.9-50.51-4.88
	c-8.22-1.46-15.65,3.98-17.09,11.66c-1.53,8.13,3.31,15.58,11.72,17.55c5.16,1.21,10.46,1.82,15.65,2.92
	C986.74,432.58,993.45,431.91,999.74,434.13z M1016.75,23.84C931.2,23.8,861.42,93.47,861.17,179.19
	c-0.25,85.8,69.61,156.09,155.27,156.23c86.16,0.14,156.02-69.7,155.96-155.93C1172.35,93.43,1102.8,23.88,1016.75,23.84z
	 M841.2,318.7c-0.95-0.73-1.39-0.95-1.67-1.3c-1.35-1.68-2.72-3.36-3.97-5.12c-38.4-54.29-52.36-114.01-39.27-179.49
	C816.43,32,908.6-44.72,1011.33-46.51c17.52-0.3,34.79,1.8,51.98,5.05c11.07,2.09,20.13-7.9,17.11-18.7
	c-1.92-6.88-7.15-9.91-13.85-11.24c-33.83-6.71-67.68-7.09-101.46-0.02C851.91-47.69,769.94,50.09,762.1,159.12
	c-3.82,53.13,8.24,102.49,34.57,148.57c6.25,10.94,13.6,21.15,21.72,31.75c-4.88-0.89-8.95-1.61-13.01-2.38
	c-9.25-1.75-17.16,3.14-18.89,11.72c-1.65,8.17,3.88,15.83,12.94,17.6c19.38,3.8,38.79,7.43,58.17,11.23
	c13.95,2.74,22.27-5.21,20.18-19.3c-2.63-17.74-5.13-35.49-7.67-53.24c-1.31-9.17-8.49-15.39-16.6-14.31
	c-8.95,1.19-14.51,8.9-13.17,18.43C840.75,312.15,841.46,315.07,841.2,318.7z"/>
<path class="st0" d="M1034.66,434.13c5.95-2.11,12.27-1.85,18.41-2.72c103.16-14.68,187.15-90.69,211.73-191.86
	c3.06-12.59,5.19-25.36,6.32-38.28c0.08-0.94-0.17-2.04,0.99-2.58c0,77.15-0.03,154.3,0.1,231.46c0.01,3.42-0.67,4.09-4.09,4.09
	C1190.29,434.1,1112.47,434.13,1034.66,434.13z"/>
<path class="st1" d="M1004.72,434.13c8.31-1.64,16.63-1.64,24.94,0C1021.35,434.13,1013.04,434.13,1004.72,434.13z"/>
<path class="st0" d="M1017.12,53.86c69.8,0.21,125.55,56.68,125.28,126.88c-0.27,68.78-57.02,124.92-126.07,124.69
	c-69.02-0.22-125.4-57.09-125.15-126.23C891.43,109.92,947.97,53.65,1017.12,53.86z M1014.49,194.66c6.45,0,11.77-0.05,17.09,0.01
	c8.36,0.1,13.99,5.23,14.2,12.82c0.22,7.9-5.27,13.68-13.73,13.9c-8.97,0.24-17.96-0.1-26.93,0.12c-6.49,0.15-12.35-1.09-18.02-4.53
	c-7.09-4.3-15.85-1.87-20.09,4.88c-4.36,6.95-2.43,15.79,4.58,20.62c5.24,3.62,10.94,6.31,17.21,7.55
	c4.18,0.83,10.05-0.05,12.17,2.42c2.18,2.54,0.56,8.21,0.9,12.49c0.63,8.15,7.32,14.04,15.43,13.83
	c8.09-0.21,14.17-6.41,14.46-14.77c0.06-1.66,0.02-3.32,0.02-4.99c0-7.18,0-7.18,7.04-8.27c23.49-3.66,38.5-22.9,36.83-47.2
	c-1.47-21.32-20.2-38.45-42.67-38.85c-10.14-0.18-20.28,0.01-30.42-0.08c-8.69-0.08-14.82-5.75-14.77-13.49
	c0.04-7.87,6-13.23,14.9-13.29c8.64-0.06,17.3,0.16,25.93-0.07c6.89-0.18,12.55,2,17.54,6.8c6.36,6.13,15.7,5.93,21.46-0.05
	c5.77-5.98,5.55-15.17-0.64-21.49c-6.66-6.8-14.7-11.25-23.87-13.77c-3.64-1-8.95,0.31-10.66-2.41c-1.81-2.9-0.55-7.71-0.68-11.68
	c-0.29-8.25-6.5-14.67-14.42-14.96c-7.95-0.3-14.99,6.22-15.49,14.47c-0.17,2.82-0.27,5.67,0,8.47c0.34,3.52-0.64,4.64-4.47,4.96
	c-21.65,1.81-38.78,19.58-39.54,40.51c-0.83,22.92,14.09,41.44,36.39,45.34C1001.35,195.2,1008.5,194.29,1014.49,194.66z"/>
<g>
	<path class="st1" d="M238.33,510.71c-6.28-2.22-13-1.55-19.42-2.91c-5.19-1.1-10.49-1.71-15.65-2.92
		c-8.41-1.97-13.25-9.42-11.72-17.55c1.45-7.69,8.87-13.13,17.09-11.66c16.72,2.98,33.5,5.19,50.51,4.88
		c106.88-1.94,197.54-77.86,217.27-182.86c12.2-64.95-2.2-124.27-41.05-177.68c-1.23-1.69-2.64-3.24-4.27-5.23
		c-0.69,4.15,0.69,7.47,0.9,10.9c0.6,9.63-4.32,16.51-12.87,17.71c-8.2,1.16-15.58-4.73-16.94-13.94
		c-2.53-17.08-4.82-34.2-7.22-51.3c-0.25-1.81-0.63-3.6-0.81-5.42c-1.07-10.34,7.58-18.64,17.76-16.74
		c20.56,3.83,41.08,7.82,61.6,11.86c8.77,1.73,13.98,9.73,12.15,18.19c-1.68,7.79-9.61,12.84-17.91,11.33
		c-4.37-0.79-8.72-1.7-13.94-2.72c7.64,9.85,14.36,19.3,20.33,29.28c20.1,33.61,31.9,69.91,35.57,108.88
		c0.09,0.93-0.25,2.05,1.01,2.53c0,13.3,0,26.6,0,39.91c-1.16,0.54-0.91,1.64-0.99,2.58c-1.13,12.92-3.26,25.69-6.32,38.28
		c-24.57,101.16-108.57,177.18-211.73,191.86c-6.14,0.87-12.46,0.61-18.41,2.72c-1.66,0-3.33,0-4.99,0
		c-8.31-1.64-16.63-1.64-24.94,0C241.66,510.71,240,510.71,238.33,510.71z"/>
	<path class="st1" d="M255.35,100.42c86.05,0.04,155.6,69.59,155.66,155.65c0.06,86.22-69.8,156.07-155.96,155.93
		c-85.66-0.14-155.52-70.43-155.27-156.23C100.02,170.05,169.79,100.38,255.35,100.42z M255.72,130.44
		c-69.15-0.21-125.7,56.06-125.94,125.34c-0.24,69.15,56.14,126.01,125.15,126.23c69.05,0.22,125.8-55.91,126.07-124.69
		C381.28,187.11,325.52,130.65,255.72,130.44z"/>
	<path class="st1" d="M79.79,395.28c0.27-3.64-0.45-6.55-0.86-9.5c-1.33-9.53,4.22-17.24,13.17-18.43
		c8.11-1.08,15.29,5.14,16.6,14.31c2.53,17.75,5.04,35.5,7.67,53.24c2.09,14.09-6.23,22.04-20.18,19.3
		c-19.38-3.81-38.79-7.43-58.17-11.23c-9.06-1.78-14.59-9.43-12.94-17.6c1.73-8.57,9.64-13.47,18.89-11.72
		c4.06,0.77,8.12,1.49,13.01,2.38c-8.12-10.6-15.47-20.81-21.72-31.75C8.93,338.19-3.13,288.82,0.69,235.7
		C8.54,126.67,90.51,28.88,203.7,5.16c33.78-7.08,67.63-6.69,101.46,0.02c6.7,1.33,11.93,4.36,13.85,11.24
		c3.02,10.8-6.04,20.79-17.11,18.7c-17.19-3.25-34.46-5.35-51.98-5.05C147.2,31.85,55.03,108.58,34.88,209.38
		c-13.09,65.48,0.87,125.2,39.27,179.49c1.25,1.76,2.62,3.43,3.97,5.12C78.4,394.33,78.85,394.56,79.79,395.28z"/>
	<path class="st1" d="M253.09,271.24c-5.99-0.37-13.14,0.54-20.26-0.71c-22.3-3.9-37.22-22.41-36.39-45.34
		c0.76-20.92,17.89-38.7,39.54-40.51c3.84-0.32,4.82-1.45,4.47-4.96c-0.27-2.8-0.18-5.66,0-8.47c0.51-8.26,7.54-14.77,15.49-14.47
		c7.93,0.3,14.14,6.72,14.42,14.96c0.14,3.97-1.13,8.78,0.68,11.68c1.7,2.73,7.02,1.41,10.66,2.41c9.18,2.52,17.21,6.97,23.87,13.77
		c6.19,6.32,6.41,15.52,0.64,21.49c-5.77,5.97-15.1,6.17-21.46,0.05c-4.99-4.8-10.65-6.98-17.54-6.8
		c-8.64,0.23-17.29,0.01-25.93,0.07c-8.9,0.06-14.85,5.43-14.9,13.29c-0.04,7.74,6.08,13.41,14.77,13.49
		c10.14,0.09,20.29-0.1,30.42,0.08c22.47,0.4,41.21,17.53,42.67,38.85c1.67,24.3-13.34,43.55-36.83,47.2
		c-7.04,1.1-7.04,1.1-7.04,8.27c0,1.66,0.04,3.33-0.02,4.99c-0.29,8.36-6.37,14.55-14.46,14.77c-8.11,0.21-14.8-5.69-15.43-13.83
		c-0.33-4.28,1.29-9.95-0.9-12.49c-2.12-2.46-7.99-1.59-12.17-2.42c-6.27-1.24-11.97-3.94-17.21-7.55
		c-7.01-4.83-8.94-13.67-4.58-20.62c4.24-6.75,13-9.18,20.09-4.88c5.67,3.44,11.53,4.68,18.02,4.53c8.97-0.21,17.96,0.12,26.93-0.12
		c8.45-0.22,13.94-6,13.73-13.9c-0.21-7.59-5.85-12.72-14.2-12.82C264.86,271.19,259.54,271.24,253.09,271.24z"/>
</g>
</svg>
