<?xml version="1.0" encoding="utf-8"?>
<!-- Generator: Adobe Illustrator 25.4.0, SVG Export Plug-In . SVG Version: 6.00 Build 0)  -->
<svg version="1.1" id="Layer_1" xmlns="http://www.w3.org/2000/svg" xmlns:xlink="http://www.w3.org/1999/xlink" x="0px" y="0px"
	 viewBox="0 0 495.44 510.86" style="enable-background:new 0 0 495.44 510.86;" xml:space="preserve">
<style type="text/css">
	.st0{fill:#01F5C6;}
	.st1{fill:#02F5C6;}
</style>
<g>
	<path class="st0" d="M197.83,510.86c-0.49-1.43-1.92-1.15-2.93-1.48c-16.51-5.28-25.9-16.66-28.85-33.56
		c-1.45-8.34-2.69-16.72-4.15-25.06c-3.3-18.94-21.49-29.81-39.71-23.59c-8.48,2.89-16.77,6.32-25.19,9.38
		c-20.01,7.28-39.35,0.3-50.08-18.15C33.32,395,19.77,371.57,6.3,348.08c-10.84-18.9-7.29-38.64,9.4-52.78
		c6.47-5.48,13.13-10.73,19.59-16.22c15.53-13.22,15.59-33.99,0.14-47.15c-7.09-6.03-14.43-11.77-21.46-17.86
		c-14.14-12.25-18.22-32.1-9.11-48.43c14.15-25.38,28.7-50.55,43.59-75.51c9.58-16.06,28.64-22.48,46.47-16.44
		c8.48,2.87,16.81,6.21,25.23,9.27c20.24,7.38,38.24-2.99,41.93-24.14c1.57-8.99,2.9-18.03,4.74-26.97
		c3.87-18.76,19.58-31.68,38.73-31.78c27.6-0.14,55.2-0.08,82.8-0.03c21.67,0.04,37.63,13.76,41.07,35.15
		c1.32,8.19,2.67,16.38,4.07,24.56c3.3,19.31,21.39,30.23,39.9,23.91c8.48-2.89,16.76-6.33,25.18-9.39
		c19.74-7.18,39.14-0.28,49.76,17.9c13.73,23.52,27.36,47.1,40.86,70.76c10.81,18.94,7.17,38.57-9.56,52.75
		c-6.72,5.69-13.67,11.12-20.33,16.89c-14.48,12.54-14.44,33.23,0.09,45.8c7.16,6.2,14.66,12.01,21.83,18.2
		c14.43,12.44,18.55,32.19,9.29,48.8c-14.15,25.38-28.67,50.57-43.59,75.5c-9.52,15.91-28.46,22.3-46.07,16.41
		c-8.96-3-17.72-6.62-26.63-9.79c-19.24-6.86-37.43,3.99-40.81,24.21c-1.48,8.84-2.77,17.72-4.61,26.49
		c-3.54,16.9-13.83,27.51-30.66,31.67c-0.66,0.16-1.28,0.25-1.53,0.99C263.68,510.86,230.76,510.86,197.83,510.86z M128.03,385.34
		c35.94-0.18,64.32,21.77,71.86,52.86c2.26,9.33,3.51,18.92,5.02,28.42c0.49,3.06,1.41,4.44,4.93,4.42
		c25.27-0.17,50.54-0.16,75.81-0.01c3.17,0.02,4.36-1.04,4.78-3.99c0.97-6.73,2.22-13.43,3.21-20.16
		c6.14-41.91,44.47-68.89,85.03-59.65c10.87,2.47,20.99,7.29,31.41,11.13c2.63,0.97,3.79,0.47,5.1-1.83
		c12.79-22.33,25.65-44.63,38.58-66.88c1.25-2.14,1.13-3.31-0.86-4.87c-6.01-4.72-11.85-9.66-17.76-14.51
		c-35.5-29.13-35.49-80.55,0.02-109.65c5.91-4.85,11.74-9.8,17.76-14.51c2-1.57,2.09-2.74,0.85-4.87
		c-12.94-22.25-25.8-44.54-38.59-66.87c-1.33-2.32-2.52-2.83-5.11-1.8c-8.49,3.35-17.01,6.66-25.68,9.48
		c-38.32,12.45-79.25-10.19-88.85-49.3c-2.25-9.16-3.49-18.59-4.93-27.93c-0.53-3.43-1.46-5-5.49-4.96
		c-24.93,0.23-49.87,0.23-74.81,0c-4.04-0.04-4.98,1.54-5.47,4.97c-1.18,8.21-2.53,16.41-4.06,24.56
		c-6.99,37.35-45.02,62.64-82.07,54.71c-11.6-2.48-22.27-7.62-33.36-11.55c-2.63-0.93-3.79-0.44-5.1,1.85
		c-12.79,22.33-25.65,44.63-38.59,66.88c-1.27,2.18-1.06,3.33,0.89,4.86c6.13,4.84,12.11,9.87,18.14,14.83
		c34.95,28.77,34.93,80.21-0.04,109.04c-6.03,4.97-12.04,9.96-18.12,14.85c-1.61,1.29-2.36,2.24-1.08,4.43
		c13.13,22.52,26.15,45.11,39.13,67.72c1.14,1.98,2.2,2.39,4.37,1.49c5.21-2.16,10.57-3.94,15.82-6
		C110.85,388.53,121.11,385.32,128.03,385.34z"/>
	<path class="st1" d="M346.24,255.33c0.09,54.15-44.5,98.74-98.66,98.66c-53.96-0.08-98.32-44.45-98.39-98.43
		c-0.07-54.18,44.5-98.74,98.65-98.65C301.86,157.01,346.15,201.31,346.24,255.33z M189.11,255.39
		c-0.04,31.86,26.33,58.41,58.31,58.69c31.95,0.27,58.88-26.49,58.92-58.58c0.04-31.88-26.32-58.41-58.31-58.67
		C216.04,196.56,189.15,223.29,189.11,255.39z"/>
</g>
</svg>
