<?xml version="1.0" encoding="utf-8"?>
<!-- Generator: Adobe Illustrator 25.4.0, SVG Export Plug-In . SVG Version: 6.00 Build 0)  -->
<svg version="1.1" id="Layer_1" xmlns="http://www.w3.org/2000/svg" xmlns:xlink="http://www.w3.org/1999/xlink" x="0px" y="0px"
	 viewBox="0 0 510.9 509.93" style="enable-background:new 0 0 510.9 509.93;" xml:space="preserve">
<style type="text/css">
	.st0{fill:#FEFEFE;}
	.st1{fill:#FCFEFE;}
	.st2{fill:#FDFEFE;}
	.st3{fill:#01F5C5;}
</style>
<path class="st0" d="M1564.65,91.23c0,69.17-0.03,138.34,0.1,207.52c0.01,3.42-0.67,4.09-4.09,4.09
	c-169.27-0.11-338.55-0.09-507.82-0.09c0-169.11,0.01-338.21-0.09-507.32c0-3.74,0.84-4.59,4.58-4.59
	c59.03,0.14,118.06,0.1,177.09,0.1c0,48.21,0.06,96.43-0.1,144.64c-0.01,4.19,1.08,5.21,5.2,5.15c16.95-0.25,33.92-0.04,50.87-0.17
	c2.97-0.02,3.97,0.65,3.97,3.83c-0.11,40.23-0.07,80.47-0.07,120.7c0,1.66,0.12,3.22-1.62,4.36c-9.24,6.07-18.42,12.24-28.31,18.84
	c0-1.86,0-2.81,0-3.77c0-25.94-0.14-51.87,0.13-77.81c0.05-4.6-1.33-5.4-5.54-5.34c-16.62,0.24-33.25-0.02-49.87,0.19
	c-3.74,0.05-4.71-0.92-4.67-4.66c0.21-16.96,0.01-33.92,0.17-50.87c0.03-3.36-0.69-4.51-4.31-4.5c-47.38,0.13-94.77,0.13-142.15,0
	c-3.59-0.01-4.35,1.07-4.34,4.47c0.11,46.88,0.12,93.77-0.01,140.65c-0.01,3.66,0.81,4.72,4.61,4.7
	c47.22-0.14,94.43-0.15,141.65,0.01c3.91,0.01,4.59-1.2,4.55-4.77c-0.18-16.96,0.02-33.92-0.17-50.87c-0.04-3.52,0.92-4.54,4.42-4.4
	c6.97,0.28,13.97,0.29,20.94,0c3.64-0.15,4.78,0.75,4.74,4.6c-0.2,22.78-0.16,45.55-0.03,68.33c0.02,3.06-1.03,4.79-3.54,6.39
	c-7.84,5.01-15.45,10.37-23.29,15.38c-2.39,1.53-3.25,3.2-3.24,6.03c0.1,31.92,0.09,63.84,0.01,95.76c-0.01,2.74,0.68,4.49,3.1,6.1
	c32.96,21.84,65.86,43.78,98.69,65.8c2.34,1.57,3.84,1.5,6.11-0.02c32.85-22.01,65.74-43.94,98.68-65.8
	c2.18-1.45,3.05-2.98,3.04-5.64c-0.09-32.09-0.1-64.17,0.01-96.26c0.01-2.85-0.89-4.5-3.26-6.02c-7.97-5.11-15.75-10.51-23.68-15.69
	c-1.94-1.26-3.13-2.47-3.12-5.08c0.11-23.44,0.12-46.88,0-70.33c-0.01-2.98,1.06-3.58,3.75-3.53c7.31,0.16,14.64,0.25,21.94-0.03
	c3.56-0.14,4.42,0.99,4.38,4.44c-0.18,16.96,0.03,33.92-0.17,50.87c-0.04,3.64,0.77,4.74,4.6,4.72
	C1467.23,91.21,1515.94,91.25,1564.65,91.23z"/>
<path class="st0" d="M1564.65-58.42c-48.36,0.01-96.72,0.09-145.09-0.08c-4.57-0.02-5.76,1.16-5.68,5.69
	c0.29,16.28-0.03,32.57,0.21,48.86c0.06,4.17-0.69,5.64-5.32,5.55c-16.78-0.33-33.57-0.02-50.35-0.22
	c-3.56-0.04-4.39,1.01-4.37,4.45c0.14,25.59,0.08,51.19,0.08,76.78c0,1.58,0,3.17,0,5.6c-9.95-6.62-19.15-12.78-28.4-18.85
	c-1.77-1.16-1.52-2.78-1.52-4.4c-0.01-40.22,0.04-80.44-0.08-120.66c-0.01-3.29,1.2-3.76,4.05-3.74
	c17.12,0.11,34.24-0.07,51.35,0.15c3.79,0.05,4.63-1.02,4.62-4.7c-0.13-48.36-0.09-96.72-0.09-145.09
	c58.94,0,117.88,0.03,176.82-0.08c3.06-0.01,3.85,0.62,3.84,3.79C1564.62-156.37,1564.65-107.4,1564.65-58.42z"/>
<path class="st0" d="M1129.09,61.34c-13.63,0-27.26-0.1-40.88,0.07c-3.33,0.04-4.54-0.63-4.52-4.28
	c0.16-27.09,0.15-54.18,0.01-81.27c-0.02-3.52,0.94-4.41,4.42-4.39c27.42,0.14,54.84,0.12,82.27,0.02c3.1-0.01,4.28,0.6,4.26,4.03
	c-0.14,27.26-0.14,54.51-0.01,81.77c0.02,3.29-0.94,4.16-4.17,4.12C1156.68,61.24,1142.88,61.34,1129.09,61.34z M1144.63,16.75
	c0-3.98-0.14-7.98,0.05-11.95c0.13-2.64-0.8-3.42-3.4-3.37c-7.63,0.15-15.27,0.15-22.91,0c-2.7-0.05-3.82,0.57-3.74,3.54
	c0.2,7.63,0.19,15.27,0,22.91c-0.07,2.87,0.87,3.67,3.66,3.6c7.47-0.17,14.95-0.25,22.41,0.03c3.51,0.13,4.17-1.26,3.98-4.3
	C1144.46,23.73,1144.63,20.24,1144.63,16.75z"/>
<path class="st0" d="M1489.45,61.34c-13.79,0-27.59-0.09-41.38,0.07c-3.17,0.04-4.22-0.72-4.21-4.08c0.14-27.26,0.14-54.51,0-81.77
	c-0.02-3.37,1.06-4.09,4.22-4.08c27.59,0.11,55.18,0.11,82.76,0c2.99-0.01,3.97,0.68,3.95,3.84c-0.13,27.42-0.13,54.84,0,82.27
	c0.02,3.2-1.02,3.84-3.97,3.81C1517.04,61.26,1503.24,61.34,1489.45,61.34z M1474.25,16.41c-0.13,0-0.26,0-0.39,0
	c0,3.98,0.12,7.97-0.04,11.95c-0.1,2.4,0.76,3.14,3.13,3.1c7.97-0.12,15.94-0.09,23.9-0.01c2.01,0.02,3.01-0.44,2.98-2.73
	c-0.11-8.13-0.1-16.27,0-24.4c0.02-2.16-0.7-2.93-2.87-2.86c-3.98,0.13-7.97-0.1-11.95,0.07c-4.92,0.21-11.49-2.17-14.27,0.98
	C1472.37,5.19,1474.25,11.63,1474.25,16.41z"/>
<path class="st0" d="M1309.26-89.31c-13.63,0-27.26-0.11-40.88,0.08c-3.34,0.05-4.1-1.02-4.09-4.2c0.12-27.26,0.11-54.51,0.01-81.77
	c-0.01-2.94,0.61-3.99,3.81-3.98c27.42,0.13,54.84,0.13,82.27,0c3.17-0.01,3.85,0.98,3.83,3.96c-0.1,27.26-0.14,54.51,0.03,81.77
	c0.02,3.75-1.36,4.25-4.59,4.21C1336.18-89.4,1322.72-89.31,1309.26-89.31z M1308.98-119.23c3.98,0,7.98-0.15,11.95,0.05
	c2.68,0.14,3.38-0.85,3.33-3.41c-0.14-7.8-0.12-15.6-0.01-23.41c0.03-2.27-0.54-3.25-3.03-3.21c-7.97,0.13-15.94,0.13-23.9,0
	c-2.44-0.04-3.1,0.86-3.07,3.17c0.11,7.8,0.13,15.61-0.01,23.41c-0.04,2.51,0.56,3.6,3.29,3.45
	C1301.33-119.39,1305.16-119.23,1308.98-119.23z"/>
<path class="st1" d="M1247.35,135.83c0.7-0.53,1.43-1.16,2.23-1.69c19.07-12.72,38.16-25.39,57.17-38.2
	c2.08-1.4,3.41-1.06,5.27,0.19c18.89,12.68,37.81,25.31,56.79,37.86c2.47,1.63,2.99,2.49,0.15,4.36
	c-19.13,12.62-38.2,25.34-57.2,38.15c-2.08,1.4-3.36,1.03-5.23-0.23c-18.88-12.69-37.83-25.27-56.75-37.91
	C1248.87,137.75,1247.59,137.48,1247.35,135.83z"/>
<path class="st2" d="M1293.91,254.68c-1.96,0.06-3.08-1.34-4.39-2.2c-17.14-11.37-34.18-22.88-51.4-34.13
	c-2.9-1.9-3.81-3.91-3.77-7.23c0.16-15.24,0.07-30.49,0.07-45.73c2.21-0.55,3.3,0.99,4.58,1.84c17.27,11.46,34.5,22.99,51.77,34.46
	c1.96,1.31,3.62,2.38,3.59,5.31c-0.17,15.43-0.09,30.87-0.11,46.31C1294.25,253.76,1294.04,254.19,1293.91,254.68z"/>
<path class="st1" d="M1384.07,164.89c0,16.47-0.01,32.39,0.02,48.32c0,1.59-0.28,2.81-1.74,3.78
	c-19.05,12.65-38.07,25.35-57.01,37.98c-1.8-1.05-1.09-2.53-1.09-3.71c-0.06-14.44-0.02-28.88-0.06-43.32
	c-0.01-2.22,0.11-4.01,2.34-5.48c18.56-12.22,37.03-24.58,55.54-36.89C1382.44,165.33,1382.94,165.27,1384.07,164.89z"/>
<g>
	<path class="st3" d="M510.9,300.3c-48.71,0.01-97.43-0.03-146.14,0.13c-3.83,0.01-4.64-1.09-4.6-4.72
		c0.2-16.96-0.01-33.92,0.17-50.87c0.04-3.45-0.82-4.58-4.38-4.44c-7.3,0.28-14.63,0.19-21.94,0.03c-2.69-0.06-3.77,0.55-3.75,3.53
		c0.12,23.44,0.11,46.88,0,70.33c-0.01,2.6,1.18,3.81,3.12,5.08c7.93,5.18,15.71,10.58,23.68,15.69c2.38,1.52,3.27,3.18,3.26,6.02
		c-0.1,32.09-0.1,64.17-0.01,96.26c0.01,2.65-0.86,4.19-3.04,5.64c-32.94,21.87-65.84,43.8-98.68,65.8
		c-2.27,1.52-3.77,1.59-6.11,0.02c-32.84-22.03-65.73-43.96-98.69-65.8c-2.42-1.6-3.11-3.35-3.1-6.1
		c0.08-31.92,0.09-63.84-0.01-95.76c-0.01-2.83,0.85-4.5,3.24-6.03c7.84-5.01,15.45-10.37,23.29-15.38c2.51-1.6,3.56-3.33,3.54-6.39
		c-0.13-22.78-0.17-45.55,0.03-68.33c0.03-3.85-1.1-4.75-4.74-4.6c-6.97,0.29-13.97,0.28-20.94,0c-3.5-0.14-4.46,0.88-4.42,4.4
		c0.19,16.96-0.02,33.92,0.17,50.87c0.04,3.56-0.65,4.78-4.55,4.77c-47.22-0.15-94.43-0.15-141.65-0.01
		c-3.8,0.01-4.62-1.04-4.61-4.7c0.13-46.88,0.12-93.77,0.01-140.65c-0.01-3.4,0.75-4.48,4.34-4.47c47.38,0.12,94.77,0.13,142.15,0
		c3.63-0.01,4.35,1.14,4.31,4.5c-0.16,16.96,0.05,33.92-0.17,50.87c-0.05,3.74,0.93,4.71,4.67,4.66
		c16.62-0.21,33.25,0.05,49.87-0.19c4.21-0.06,5.59,0.74,5.54,5.34c-0.26,25.93-0.13,51.87-0.13,77.81c0,0.95,0,1.9,0,3.77
		c9.89-6.6,19.07-12.77,28.31-18.84c1.74-1.15,1.62-2.7,1.62-4.36c0-40.23-0.04-80.47,0.07-120.7c0.01-3.18-0.99-3.85-3.97-3.83
		c-16.96,0.13-33.92-0.08-50.87,0.17c-4.12,0.06-5.21-0.96-5.2-5.15c0.16-48.21,0.1-96.43,0.1-144.64c49.88,0,99.77,0,149.65,0
		c0,48.36-0.04,96.72,0.09,145.09c0.01,3.67-0.83,4.75-4.62,4.7c-17.12-0.22-34.23-0.04-51.35-0.15c-2.85-0.02-4.06,0.45-4.05,3.74
		c0.12,40.22,0.08,80.44,0.08,120.66c0,1.63-0.25,3.24,1.52,4.4c9.25,6.07,18.45,12.23,28.4,18.85c0-2.43,0-4.01,0-5.6
		c0-25.59,0.07-51.19-0.08-76.78c-0.02-3.44,0.81-4.49,4.37-4.45c16.78,0.19,33.57-0.12,50.35,0.22c4.63,0.09,5.38-1.38,5.32-5.55
		c-0.24-16.28,0.08-32.58-0.21-48.86c-0.08-4.54,1.11-5.71,5.68-5.69c48.36,0.17,96.72,0.09,145.09,0.08
		C510.9,200.53,510.9,250.42,510.9,300.3z M75.33,270.4c13.79,0,27.59-0.1,41.38,0.07c3.23,0.04,4.18-0.83,4.17-4.12
		c-0.13-27.26-0.14-54.51,0.01-81.77c0.02-3.43-1.17-4.05-4.26-4.03c-27.42,0.11-54.84,0.13-82.27-0.02
		c-3.48-0.02-4.44,0.87-4.42,4.39c0.15,27.09,0.16,54.18-0.01,81.27c-0.02,3.65,1.19,4.33,4.52,4.28
		C48.07,270.3,61.7,270.41,75.33,270.4z M435.69,270.4c13.79,0,27.59-0.08,41.38,0.06c2.95,0.03,3.99-0.62,3.97-3.81
		c-0.13-27.42-0.13-54.84,0-82.27c0.01-3.16-0.96-3.85-3.95-3.84c-27.59,0.11-55.18,0.11-82.76,0c-3.16-0.01-4.24,0.71-4.22,4.08
		c0.14,27.26,0.14,54.51,0,81.77c-0.02,3.36,1.04,4.12,4.21,4.08C408.1,270.31,421.9,270.4,435.69,270.4z M255.5,119.76
		c13.46,0,26.92-0.09,40.38,0.07c3.23,0.04,4.61-0.45,4.59-4.21c-0.17-27.25-0.13-54.51-0.03-81.77c0.01-2.97-0.66-3.97-3.83-3.96
		c-27.42,0.13-54.84,0.13-82.27,0c-3.2-0.02-3.82,1.04-3.81,3.98c0.1,27.26,0.11,54.51-0.01,81.77c-0.01,3.18,0.75,4.24,4.09,4.2
		C228.24,119.64,241.87,119.76,255.5,119.76z M193.6,344.89c0.24,1.66,1.52,1.93,2.42,2.53c18.92,12.63,37.87,25.22,56.75,37.91
		c1.87,1.26,3.15,1.63,5.23,0.23c19.01-12.81,38.07-25.53,57.2-38.15c2.85-1.88,2.32-2.73-0.15-4.36
		c-18.98-12.55-37.9-25.18-56.79-37.86c-1.86-1.25-3.19-1.59-5.27-0.19c-19.01,12.81-38.11,25.48-57.17,38.2
		C195.03,343.73,194.29,344.36,193.6,344.89z M240.15,463.75c0.13-0.49,0.34-0.93,0.34-1.36c0.02-15.44-0.06-30.87,0.11-46.31
		c0.03-2.93-1.63-4.01-3.59-5.31c-17.26-11.47-34.49-23-51.77-34.46c-1.28-0.85-2.38-2.39-4.58-1.84c0,15.24,0.09,30.49-0.07,45.73
		c-0.04,3.32,0.87,5.33,3.77,7.23c17.22,11.25,34.26,22.76,51.4,34.13C237.07,462.42,238.19,463.82,240.15,463.75z M330.32,373.96
		c-1.14,0.38-1.63,0.44-2.01,0.68c-18.51,12.3-36.98,24.67-55.54,36.89c-2.23,1.47-2.35,3.26-2.34,5.48
		c0.04,14.44,0,28.88,0.06,43.32c0,1.17-0.71,2.66,1.09,3.71c18.94-12.63,37.96-25.33,57.01-37.98c1.46-0.97,1.75-2.19,1.74-3.78
		C330.31,406.35,330.32,390.43,330.32,373.96z"/>
	<path class="st3" d="M90.87,225.82c0,3.49-0.17,6.98,0.05,10.46c0.19,3.04-0.46,4.43-3.98,4.3c-7.46-0.28-14.94-0.2-22.41-0.03
		c-2.79,0.07-3.73-0.73-3.66-3.6c0.19-7.63,0.19-15.27,0-22.91c-0.08-2.97,1.04-3.59,3.74-3.54c7.63,0.15,15.27,0.15,22.91,0
		c2.6-0.05,3.53,0.72,3.4,3.37C90.73,217.84,90.87,221.83,90.87,225.82z"/>
	<path class="st3" d="M420.5,225.47c0-4.78-1.88-11.22,0.49-13.9c2.78-3.15,9.35-0.77,14.27-0.98c3.98-0.17,7.97,0.06,11.95-0.07
		c2.17-0.07,2.89,0.7,2.87,2.86c-0.09,8.13-0.1,16.27,0,24.4c0.03,2.3-0.97,2.75-2.98,2.73c-7.97-0.07-15.94-0.1-23.9,0.01
		c-2.36,0.03-3.22-0.7-3.13-3.1c0.16-3.98,0.04-7.97,0.04-11.95C420.24,225.47,420.37,225.47,420.5,225.47z"/>
	<path class="st3" d="M255.22,89.84c-3.82,0-7.65-0.16-11.45,0.05c-2.73,0.15-3.34-0.94-3.29-3.45c0.13-7.8,0.12-15.61,0.01-23.41
		c-0.03-2.32,0.63-3.21,3.07-3.17c7.97,0.13,15.94,0.13,23.9,0c2.49-0.04,3.06,0.94,3.03,3.21c-0.1,7.8-0.13,15.61,0.01,23.41
		c0.05,2.56-0.65,3.55-3.33,3.41C263.2,89.68,259.21,89.84,255.22,89.84z"/>
</g>
</svg>
