<?xml version="1.0" encoding="utf-8"?>
<!-- Generator: Adobe Illustrator 25.4.0, SVG Export Plug-In . SVG Version: 6.00 Build 0)  -->
<svg version="1.1" id="Layer_1" xmlns="http://www.w3.org/2000/svg" xmlns:xlink="http://www.w3.org/1999/xlink" x="0px" y="0px"
	 viewBox="0 0 512 512" style="enable-background:new 0 0 512 512;" xml:space="preserve">
<style type="text/css">
	.st0{fill:#03F5C6;}
	.st1{fill:#02F5C6;}
</style>
<g>
	<path class="st0" d="M0.63,332.69c17.95-35.85,35.91-71.7,53.86-107.55c12.26-24.48,24.49-48.97,36.76-73.44
		c3.12-6.21,7.83-10.48,15.13-10.36c7.06,0.11,11.54,4.42,14.67,10.37c0.54,1.03,1.02,2.09,1.54,3.13
		c17.59,35.17,35.18,70.35,52.76,105.52c11.06,22.11,22.07,44.25,33.2,66.33c2.57,5.09,3.89,10.28,2.26,15.84
		c-2.1,7.17-8.81,11.77-17.82,11.79c-58,0.08-116,0.05-174,0.03c-8.98,0-14.84-4.69-18.38-12.67
		C0.63,338.68,0.63,335.68,0.63,332.69z M170.97,308.16c4.3-1.17,1.62-4.13,0.65-6.08c-20.63-41.47-41.35-82.88-62.07-124.31
		c-0.74-1.47-1.34-3.37-3.21-3.47c-2.2-0.11-2.89,2.02-3.69,3.58c-3.99,7.84-7.88,15.73-11.82,23.6
		c-16.77,33.55-33.55,67.1-50.3,100.66c-0.79,1.59-2.51,3.45-1.35,5.01c1.34,1.81,3.69,0.52,5.61,0.28
		c0.16-0.02,0.31-0.11,0.48-0.14c32.98-7.17,66.2-7.96,99.62-3.87C153.46,304.48,161.93,306.12,170.97,308.16z"/>
	<path class="st1" d="M256.13,504.92c-64,0-128.01,0.02-192.01-0.04c-4.47,0-9.02-0.14-13.4-0.94c-6.92-1.28-8.76-5.5-5.27-11.59
		c4.27-7.46,10.42-13.36,16.96-18.77c25.09-20.77,54.18-33.94,84.84-43.93c27.43-8.94,55.63-14.12,84.41-16.14
		c7-0.49,8.51-2.23,8.51-9.9c0-94.59,0-189.18,0.01-283.78c0-9.14,4.38-15.68,11.69-17.58c9.68-2.51,18.98,4.05,19.95,14.14
		c0.17,1.81,0.08,3.65,0.08,5.48c0,93.59,0,187.19,0,280.78c0,9.51,0.84,10.16,10.39,10.98c54.72,4.68,106.46,18.8,152.96,49.08
		c10.76,7.01,20.64,15.14,28.57,25.39c1.12,1.44,2.2,2.93,3.12,4.5c3.47,5.94,1.89,9.97-4.92,11.25c-4.53,0.86-9.25,1.02-13.89,1.02
		C384.14,504.94,320.13,504.92,256.13,504.92z"/>
	<path class="st1" d="M256.28,7.28c15.65,0.03,29.35,9.58,34.48,24.7c1.72,5.08,3.9,6.58,9.4,5.66
		c52.54-8.8,105.13-17.29,157.7-25.86c9.66-1.57,19.32-3.21,29.02-4.54c9.09-1.25,16.54,4.46,17.88,13.32
		c1.27,8.39-4.2,16.21-13.01,17.72c-22.24,3.81-44.53,7.37-66.8,11c-35.7,5.82-71.41,11.62-107.12,17.44
		c-41.93,6.83-83.85,13.68-125.78,20.52c-37.51,6.12-75.01,12.23-112.52,18.36c-17.2,2.81-34.37,5.78-51.59,8.45
		c-13.5,2.09-23.21-6.94-20.36-18.73c1.59-6.59,5.84-10.86,12.55-11.97c36.84-6.1,73.7-12.05,110.55-18.06
		c27.35-4.46,54.69-9.03,82.06-13.33c4.9-0.77,6.57-2.69,6.56-7.76C219.27,23.29,235.57,7.25,256.28,7.28z"/>
	<path class="st0" d="M406.19,295.49c-28.1,0-56.2,0.01-84.3-0.02c-2.31,0-4.66-0.12-6.94-0.52c-11.39-2-17.33-12.4-13.16-23.2
		c1.37-3.55,3.24-6.91,4.95-10.32c27.61-55.24,55.23-110.47,82.85-165.7c0.37-0.74,0.74-1.49,1.11-2.23
		c3.16-6.35,7.71-11.04,15.25-11.04c7.54,0,12.07,4.68,15.25,11.03c29.17,58.37,58.39,116.71,87.49,175.1
		c7.15,14.34-0.61,26.79-16.71,26.86C463.39,295.57,434.79,295.48,406.19,295.49z M470.3,248.72c1.38-0.08,2.9-1.12,1.79-4.03
		c-0.59-1.55-1.34-3.04-2.08-4.52c-19.5-39.05-39.01-78.1-58.53-117.15c-0.67-1.33-1.35-2.69-2.23-3.87c-2.26-3.04-4.58-3-6.71,0.18
		c-0.73,1.1-1.35,2.28-1.95,3.47c-19.85,39.61-39.68,79.23-59.51,118.85c-0.96,1.92-2.34,4.06-0.82,6.05
		c1.42,1.87,3.62,0.87,5.58,0.47c33.17-6.88,66.56-7.9,100.11-3.39C453.67,245.81,461.34,247.26,470.3,248.72z"/>
</g>
</svg>
