<?xml version="1.0" encoding="utf-8"?>
<!-- Generator: Adobe Illustrator 25.4.0, SVG Export Plug-In . SVG Version: 6.00 Build 0)  -->
<svg version="1.1" id="Layer_1" xmlns="http://www.w3.org/2000/svg" xmlns:xlink="http://www.w3.org/1999/xlink" x="0px" y="0px"
	 viewBox="0 0 510.81 510.81" style="enable-background:new 0 0 510.81 510.81;" xml:space="preserve">
<style type="text/css">
	.st0{fill:#FDFEFE;}
	.st1{fill:#03F5C6;}
	.st2{fill:#04F5C6;}
</style>
<path class="st0" d="M80.86-758.43c97.44,0,194.88,0.02,292.32-0.1c3.42,0,4.09,0.67,4.09,4.09c-0.11,167.94-0.11,335.89,0,503.83
	c0,3.42-0.67,4.09-4.09,4.09c-167.94-0.11-335.89-0.11-503.83,0c-3.42,0-4.09-0.67-4.09-4.09c0.13-65.18,0.1-130.36,0.1-195.55
	c2.47,3.62,5.9,5.96,9.71,8.07c49.53,27.45,99.01,54.99,148.5,82.51c12.77,7.1,25.51,14.27,38.35,21.23
	c5.69,3.08,11.78,1.35,14.7-3.76c2.96-5.18,1.27-11.13-4.17-14.66c-0.83-0.54-1.71-1.02-2.58-1.5
	c-59.79-33.25-119.58-66.51-179.42-99.66c-2.85-1.58-3.99-3.17-3.98-6.5c0.11-54.71,0.12-109.41,0-164.12
	c-0.01-4.42,1.04-4.63,4.65-2.8c22.36,11.32,44.77,22.54,67.25,33.62c3.04,1.5,3.81,3.34,3.79,6.54
	c-0.14,22.11-0.1,44.23-0.06,66.34c0.01,7.66,4.14,12.2,10.8,12.09c6.47-0.1,10.31-4.47,10.33-12c0.05-15.8,0.02-31.59,0.02-47.39
	c0-4.07,0-8.15,0-12.8c1.69,0.76,2.73,1.18,3.73,1.69c28.05,14.05,56.13,28.05,84.12,42.22c4.69,2.37,8.86,2.63,13.65,0.23
	c59.93-30.09,119.92-60.06,179.9-90.04c1.43-0.71,2.71-1.96,5-1.55c0,2.74,0,5.53,0,8.32c0,20.62-0.04,41.24,0.02,61.86
	c0.03,8.81,6.03,14.11,13.54,12.2c5.12-1.3,7.92-5.78,7.94-12.88c0.06-28.93,0.09-57.86,0.14-86.79c0.01-4.93-2.04-8.65-6.5-10.88
	c-35.64-17.78-71.29-35.53-106.92-53.32C145.52-726.04,113.19-742.24,80.86-758.43z M237.91-524.19
	c-76.49,0.03-138.16,61.56-138.3,138.01c-0.15,76.5,61.85,138.59,138.38,138.57c76.1-0.01,138.22-62.22,138.19-138.39
	C376.14-462.26,314.15-524.22,237.91-524.19z"/>
<path class="st0" d="M74.87-758.43c-16.38,8.31-32.71,16.71-49.14,24.93c-51.32,25.67-102.66,51.29-154.04,76.84
	c-2.82,1.4-4.24,3.98-6.34,5.98c0-34.75,0.05-69.51-0.08-104.26c-0.01-2.98,0.6-3.58,3.58-3.57
	C-62.48-758.4,6.2-758.43,74.87-758.43z"/>
<path class="st0" d="M255.41-646.13c-8.67,4.37-17.49,8.84-26.33,13.26c-48.84,24.43-97.71,48.8-146.5,73.33
	c-3.2,1.61-5.6,1.54-8.74-0.04c-25.46-12.89-51.02-25.6-77.22-38.71c4.63-2.36,8.69-4.47,12.77-6.51
	c53.89-26.96,107.78-53.91,161.66-80.86c2.06-1.03,3.81-2.02,6.41-0.7c25.33,12.82,50.74,25.47,76.12,38.19
	C254.25-647.83,255.24-647.72,255.41-646.13z"/>
<path class="st0" d="M-99.88-646.81c17.84-8.92,34.73-17.36,51.61-25.82c40.35-20.2,80.72-40.34,120.99-60.7
	c4.02-2.03,7.09-1.86,10.98,0.12c20.4,10.4,40.94,20.54,61.42,30.78c1.59,0.8,3.14,1.69,5.36,2.89c-1.9,1.1-3.21,1.95-4.59,2.64
	c-56.21,28.14-112.45,56.23-168.62,84.46c-3.36,1.69-5.9,1.64-9.21-0.05c-20.84-10.61-41.81-20.99-62.72-31.45
	C-96.1-644.66-97.49-645.49-99.88-646.81z"/>
<path class="st0" d="M237.89-268.8c-64.02,0.16-116.89-52.47-117.12-116.59c-0.23-64.77,52.22-117.51,116.97-117.62
	c64.39-0.11,117,52.39,117.22,116.96C355.18-321.91,302.32-268.97,237.89-268.8z M163.45-385.22c-0.22,3.1,1.92,5.78,4.46,8.32
	c13.06,13.03,26.08,26.09,39.14,39.11c7.04,7.02,12.76,6.8,19.33-0.69c17.74-20.24,35.47-40.49,53.2-60.74
	c6.35-7.25,12.75-14.45,18.99-21.79c4.3-5.06,3.9-11.66-0.66-15.58c-4.53-3.89-10.54-3.37-15.11,1.38
	c-1.84,1.92-3.54,3.96-5.29,5.96c-19.47,22.26-39.01,44.45-58.33,66.85c-2.78,3.22-4.17,2.62-6.69-0.02
	c-6.77-7.09-13.8-13.93-20.75-20.85c-3.65-3.63-7.2-7.38-11.05-10.79c-3.27-2.9-7.25-3.22-11.19-1.43
	C165.5-393.68,163.5-390.41,163.45-385.22z"/>
<g>
	<path class="st1" d="M215.5,0c32.33,16.18,64.66,32.39,97.01,48.55c35.63,17.8,71.29,35.54,106.92,53.32
		c4.46,2.23,6.5,5.95,6.5,10.88c-0.05,28.93-0.08,57.86-0.14,86.79c-0.01,7.09-2.82,11.58-7.94,12.88
		c-7.51,1.9-13.51-3.4-13.54-12.2c-0.07-20.62-0.02-41.24-0.02-61.86c0-2.79,0-5.57,0-8.32c-2.28-0.41-3.57,0.84-5,1.55
		c-59.98,29.98-119.97,59.96-179.9,90.04c-4.79,2.4-8.96,2.15-13.65-0.23c-27.99-14.17-56.06-28.17-84.12-42.22
		c-1-0.5-2.05-0.93-3.73-1.69c0,4.65,0,8.72,0,12.8c0,15.8,0.04,31.59-0.02,47.39c-0.02,7.54-3.86,11.9-10.33,12
		c-6.66,0.1-10.78-4.43-10.8-12.09c-0.04-22.11-0.08-44.23,0.06-66.34c0.02-3.2-0.74-5.04-3.79-6.54
		c-22.48-11.07-44.9-22.29-67.25-33.62c-3.61-1.83-4.66-1.62-4.65,2.8c0.12,54.71,0.11,109.41,0,164.12
		c-0.01,3.32,1.13,4.92,3.98,6.5c59.85,33.15,119.63,66.41,179.42,99.66c0.87,0.48,1.75,0.96,2.58,1.5
		c5.44,3.53,7.13,9.48,4.17,14.66c-2.92,5.11-9.01,6.85-14.7,3.76c-12.84-6.97-25.58-14.13-38.35-21.23
		c-49.49-27.51-98.97-55.06-148.5-82.51c-3.81-2.11-7.24-4.45-9.71-8.07c0-68.17,0-136.35,0-204.52c2.1-2,3.52-4.58,6.34-5.98
		c51.37-25.56,102.72-51.18,154.04-76.84C176.8,16.71,193.14,8.31,209.51,0C211.51,0,213.5,0,215.5,0z M390.05,112.3
		c-0.17-1.6-1.16-1.71-1.82-2.04c-25.38-12.73-50.79-25.37-76.12-38.19c-2.6-1.32-4.35-0.33-6.41,0.7
		c-53.89,26.96-107.78,53.91-161.66,80.86c-4.08,2.04-8.14,4.15-12.77,6.51c26.2,13.11,51.76,25.82,77.22,38.71
		c3.13,1.59,5.54,1.65,8.74,0.04c48.79-24.53,97.66-48.91,146.5-73.33C372.56,121.14,381.38,116.67,390.05,112.3z M34.77,111.62
		c2.38,1.32,3.78,2.15,5.22,2.88c20.92,10.47,41.88,20.84,62.72,31.45c3.31,1.69,5.85,1.74,9.21,0.05
		c56.17-28.23,112.4-56.33,168.62-84.46c1.39-0.69,2.7-1.55,4.59-2.64c-2.22-1.2-3.77-2.09-5.36-2.89
		c-20.48-10.24-41.02-20.37-61.42-30.78c-3.9-1.99-6.97-2.15-10.98-0.12C167.1,45.46,126.72,65.6,86.37,85.8
		C69.49,94.25,52.6,102.7,34.77,111.62z"/>
	<path class="st1" d="M372.55,234.23c76.24-0.03,138.23,61.93,138.26,138.19c0.03,76.17-62.09,138.38-138.19,138.39
		c-76.52,0.01-138.53-62.08-138.38-138.57C234.39,295.8,296.06,234.26,372.55,234.23z M372.53,489.62
		c64.43-0.16,117.29-53.1,117.07-117.24c-0.22-64.58-52.83-117.07-117.22-116.96c-64.75,0.11-117.2,52.85-116.97,117.62
		C255.64,437.15,308.51,489.78,372.53,489.62z"/>
	<path class="st2" d="M298.09,373.21c0.05-5.19,2.04-8.46,6.05-10.27c3.95-1.78,7.92-1.47,11.19,1.43
		c3.85,3.41,7.4,7.16,11.05,10.79c6.95,6.92,13.97,13.76,20.75,20.85c2.52,2.64,3.92,3.24,6.69,0.02
		c19.31-22.39,38.86-44.59,58.33-66.85c1.75-2,3.45-4.05,5.29-5.96c4.56-4.75,10.58-5.27,15.11-1.38
		c4.56,3.92,4.96,10.51,0.66,15.58c-6.24,7.34-12.64,14.54-18.99,21.79c-17.73,20.25-35.46,40.5-53.2,60.74
		c-6.57,7.49-12.3,7.71-19.33,0.69c-13.06-13.03-26.08-26.09-39.14-39.11C300.01,378.99,297.88,376.3,298.09,373.21z"/>
</g>
</svg>
