<?xml version="1.0" encoding="utf-8"?>
<!-- Generator: Adobe Illustrator 25.4.0, SVG Export Plug-In . SVG Version: 6.00 Build 0)  -->
<svg version="1.1" id="Layer_1" xmlns="http://www.w3.org/2000/svg" xmlns:xlink="http://www.w3.org/1999/xlink" x="0px" y="0px"
	 viewBox="0 0 510.35 510.32" style="enable-background:new 0 0 510.35 510.32;" xml:space="preserve">
<style type="text/css">
	.st0{fill:#F0FEFB;}
	.st1{fill:#00F5C5;}
	.st2{fill:#02F5C6;}
</style>
<path class="st0" d="M-1160.3,362.99c2.04,5.93,6.03,9.92,11.96,11.96c-3.99,0-9.53,1.56-11.52-0.44
	C-1161.85,372.52-1160.3,366.98-1160.3,362.99z"/>
<g>
	<path class="st1" d="M0,491.38c4.31-9.78,12.35-11.64,22.06-11.07c8.81,0.51,8.83,0.11,8.83-8.65c0-51.66,0-103.32,0-154.97
		c0-11.97,5.71-17.67,17.68-17.67c18.44-0.01,36.87-0.02,55.31,0.01c10.61,0.02,16.7,6.06,16.7,16.64
		c0.02,53.15,0.07,106.31-0.1,159.46c-0.01,4.41,1.04,5.68,5.44,5.41c6.62-0.41,13.3-0.4,19.92,0c4.25,0.26,4.74-1.46,4.73-5.08
		c-0.12-32.89-0.07-65.78-0.07-98.66c0-12.32,5.61-17.96,17.89-17.96c18.27-0.01,36.54-0.02,54.81,0
		c10.98,0.01,16.99,5.96,16.99,16.85c0.02,33.22,0.09,66.44-0.09,99.66c-0.02,4.11,0.93,5.43,5.14,5.19
		c6.62-0.38,13.3-0.41,19.92,0.01c4.4,0.28,5.03-1.36,5.03-5.3c-0.12-70.43-0.09-140.85-0.09-211.28c0-3.16-0.06-6.31,0.01-9.47
		c0.21-8.77,6.37-15.18,15.09-15.23c19.76-0.12,39.53-0.12,59.3,0c9.53,0.06,15.3,6.62,15.3,17.02
		c0.01,72.75,0.05,145.51-0.1,218.26c-0.01,4.65,0.84,6.38,5.84,6.02c6.77-0.5,13.62-0.3,20.42-0.05c3.2,0.12,4.18-0.99,3.78-3.96
		c-0.15-1.14-0.02-2.32-0.02-3.48c0-101.65,0-203.31,0-304.96c0-13.28,5.36-18.58,18.76-18.58c17.94,0,35.88-0.01,53.81,0
		c11.24,0.01,17.12,5.91,17.12,17.23c0.01,102.65,0.05,205.3-0.12,307.95c-0.01,4.95,1.33,6.4,6.02,5.8
		c2.94-0.38,5.97-0.1,8.96-0.06c8.15,0.09,13.97,4.49,15.72,11.86c1.59,6.71-2,13.35-9.14,16.97c-0.54,0.27-1,0.71-1.5,1.07
		c-162.46,0-324.92,0-487.38,0c-5.93-2.04-9.92-6.03-11.96-11.96C0,496.03,0,493.71,0,491.38z"/>
	<path class="st2" d="M30.9,197.18c-0.02-27.75,20.5-47.97,45.55-47.67c24.89,0.3,44.91,21.25,43.99,46.3
		c-0.12,3.18,0.78,4.64,3.58,6c12.23,5.93,24.35,12.09,36.47,18.24c2.39,1.21,4.08,1.53,6.59-0.47
		c13.39-10.64,28.3-13.19,44.38-7.03c2.5,0.96,3.86,0.49,5.59-1.25c18.27-18.37,36.58-36.69,54.97-54.94
		c1.96-1.94,2.16-3.47,1.18-6.05c-6.82-18.01-1.91-37.2,12.5-49.73c14.05-12.21,33.83-14.38,50.63-5.32
		c2.52,1.36,4.15,1.58,6.59-0.28c15.17-11.58,30.47-23,45.8-34.38c2.24-1.66,2.99-3.04,2.27-6.11
		c-4.48-19.27,4.06-38.48,21.15-48.47c16.49-9.64,37.62-7.56,51.92,5.13c14.69,13.03,19.32,33.37,11.66,51.27
		c-7.62,17.83-25.82,28.82-45.11,27.13c-6.18-0.54-12.11-2.22-17.44-5.4c-2.49-1.49-4.19-1.59-6.6,0.25
		c-15.31,11.68-30.71,23.23-46.19,34.69c-2.26,1.67-2.49,3.1-1.9,5.77c3.76,17.25-1.13,32.05-14.34,43.5
		c-13.06,11.32-28.27,14.05-44.63,8.01c-3.03-1.12-4.7-0.63-6.85,1.55c-17.88,18.05-35.85,36.01-53.89,53.91
		c-2.13,2.11-2.83,3.74-1.64,6.82c6.58,17.15,2.1,35.78-11.29,48.31c-13.09,12.25-32.39,15.49-48.61,8.15
		c-16.93-7.66-27.35-24.08-26.59-42.46c0.13-3.2-0.83-4.67-3.61-6.01c-11.94-5.77-23.84-11.64-35.6-17.78
		c-3.24-1.7-5.26-1.58-8.28,0.69c-14.67,11.05-30.71,13.02-47.24,4.85C39.6,226.32,31.73,212.43,30.9,197.18z"/>
</g>
</svg>
